<svg width="148" height="54" viewBox="0 0 148 54" fill="none" xmlns="http://www.w3.org/2000/svg">
<path d="M10.252 50.91C10.7583 51.745 11.4924 52.2853 12.4543 52.5309V53.0466H0V52.5309C0.961915 52.2853 1.69601 51.745 2.20228 50.91C2.75918 50.075 3.03763 48.8716 3.03763 47.2999V7.29391C3.03763 5.67304 2.75918 4.44511 2.20228 3.61012C1.69601 2.77512 0.961915 2.23483 0 1.98925V1.47352H12.4543V1.98925C11.4924 2.23483 10.7329 2.77512 10.176 3.61012C9.66978 4.44511 9.41664 5.67304 9.41664 7.29391V31.9753C11.7961 29.0283 13.9984 26.3023 16.0235 23.7973C18.0486 21.2923 19.7952 19.0084 21.2634 16.9454C22.7822 14.8334 23.9719 12.9424 24.8326 11.2724C25.6933 9.60242 26.1236 8.15346 26.1236 6.92553C26.1236 5.20643 25.8451 4.02761 25.2882 3.38909C24.7313 2.70145 23.9972 2.23483 23.086 1.98925V1.47352H36.4515V1.98925C35.7427 2.48042 34.6289 3.43821 33.1101 4.8626C32.047 5.94318 30.756 7.36758 29.2371 9.1358C27.769 10.904 26.2502 12.7214 24.6807 14.5878C23.1619 16.4543 21.719 18.2225 20.3521 19.8925C18.9852 21.5625 17.9473 22.8395 17.2385 23.7236L35.4643 48.3313C36.73 49.7066 37.7678 50.7381 38.5778 51.4257C39.3879 52.1134 40.2992 52.4818 41.3117 52.5309V53.0466H27.1868V52.5309C27.7943 52.4326 28.2752 52.2853 28.6296 52.0888C28.984 51.8432 29.1612 51.3766 29.1612 50.689C29.1612 50.296 28.8321 49.5593 28.174 48.4787C27.5158 47.349 26.6805 46.0474 25.6679 44.5739C24.6554 43.1004 23.5416 41.5286 22.3265 39.8586C21.1115 38.1395 19.9218 36.5187 18.7573 34.996C17.5929 33.4243 16.5551 32.049 15.6438 30.8702C14.7325 29.6422 14.0743 28.7581 13.6693 28.2178L9.41664 33.5225V47.2999C9.41664 48.8716 9.69509 50.075 10.252 50.91Z" fill="#3D4621"/>
<path d="M53.3904 53.0466C52.6816 53.4887 51.8716 53.7097 50.9603 53.7097C49.3403 53.7097 48.0746 53.0957 47.1633 51.8678C46.3026 50.5907 45.8723 48.8225 45.8723 46.5631V9.1358C45.8723 6.04142 44.9863 4.29776 43.2144 3.90482V3.38909L51.8716 0H52.2513V44.2792C52.2513 46.6859 52.3273 48.3313 52.4791 49.2155C52.631 50.0996 53.0613 50.5416 53.7701 50.5416C54.1751 50.5416 54.5548 50.3697 54.9092 50.0259C55.2636 49.6821 55.5927 49.2891 55.8965 48.8471C56.2509 48.3559 56.5799 47.7911 56.8837 47.1525L57.5672 47.3736C57.314 47.963 56.9849 48.626 56.5799 49.3628C56.2255 50.0996 55.7699 50.7872 55.213 51.4257C54.7067 52.0643 54.0992 52.6045 53.3904 53.0466Z" fill="#3D4621"/>
<path d="M69.2958 7.29391C68.5364 8.03067 67.6251 8.39905 66.562 8.39905C65.4482 8.39905 64.5116 8.03067 63.7522 7.29391C62.9928 6.55715 62.6131 5.64848 62.6131 4.5679C62.6131 3.48732 62.9928 2.57865 63.7522 1.84189C64.5116 1.10514 65.4482 0.736758 66.562 0.736758C67.6251 0.736758 68.5364 1.10514 69.2958 1.84189C70.0552 2.57865 70.435 3.48732 70.435 4.5679C70.435 5.64848 70.0552 6.55715 69.2958 7.29391ZM70.8147 53.0466C70.1059 53.4887 69.2958 53.7097 68.3846 53.7097C66.7645 53.7097 65.4988 53.0957 64.5875 51.8678C63.7269 50.5907 63.2965 48.8225 63.2965 46.5631V25.4182C63.2965 22.3238 62.4106 20.5801 60.6386 20.1872V19.6714L69.2958 16.2824H69.6755V44.2792C69.6755 46.6859 69.7515 48.3313 69.9034 49.2155C70.0553 50.0996 70.4856 50.5416 71.1944 50.5416C71.5994 50.5416 71.9791 50.3697 72.3335 50.0259C72.6878 49.6821 73.0169 49.2891 73.3207 48.8471C73.6751 48.3559 74.0042 47.7911 74.3079 47.1525L74.9914 47.3736C74.7383 47.963 74.4092 48.626 74.0042 49.3628C73.6498 50.0996 73.1941 50.7872 72.6372 51.4257C72.131 52.0643 71.5234 52.6045 70.8147 53.0466Z" fill="#3D4621"/>
<path d="M87.7126 47.2262C87.7126 50.2715 88.7252 52.0397 90.7503 52.5309V52.9729H78.296V52.5309C80.3211 52.0397 81.3336 50.2715 81.3336 47.2262V9.1358C81.3336 6.04142 80.4476 4.29776 78.6757 3.90482V3.38909L87.3329 0H87.7126V35.7328C91.3578 32.2455 94.1676 29.4212 96.142 27.2601C98.1671 25.0989 99.1797 23.1833 99.1797 21.5133C99.1797 20.5801 98.8506 19.7451 98.1924 19.0084C97.5343 18.2716 96.7243 17.7804 95.7623 17.5348V17.0191H109.128V17.5348C107.305 18.6645 105.635 19.8188 104.116 20.9976C102.648 22.1764 101.23 23.4044 99.8631 24.6814C98.5468 25.9093 97.2305 27.2355 95.9142 28.6599C94.5979 30.0352 93.1804 31.4841 91.6615 33.0068C92.9778 34.6768 94.4713 36.5923 96.142 38.7535C97.8634 40.8655 99.5847 42.9039 101.306 44.8686C103.027 46.8333 104.673 48.5524 106.242 50.0259C107.862 51.4503 109.254 52.2853 110.419 52.5309V52.9729H97.9646V52.5309C98.3696 52.3835 98.5722 52.0888 98.5722 51.6468C98.5722 50.6644 97.6862 48.9699 95.9142 46.5631C94.1929 44.1073 91.8641 41.062 88.9277 37.4273C88.6745 37.1326 88.3961 36.9853 88.0923 36.9853C87.9405 36.9853 87.8139 37.0098 87.7126 37.0589V47.2262Z" fill="#3D4621"/>
<path d="M128.659 52.8992C127.242 53.3904 125.698 53.636 124.027 53.636C122.255 53.636 120.635 53.3904 119.167 52.8992C117.749 52.4081 116.534 51.7941 115.522 51.0574C114.509 50.3206 113.724 49.5102 113.168 48.626C112.611 47.7419 112.332 46.9069 112.332 46.1211L115.37 43.8371C115.37 44.623 115.522 45.5562 115.826 46.6368C116.129 47.6683 116.636 48.6752 117.344 49.6575C118.053 50.5907 118.939 51.3766 120.002 52.0151C121.116 52.6045 122.407 52.8992 123.875 52.8992C124.027 52.8992 124.154 52.8992 124.255 52.8992C125.217 52.8501 126.128 52.6537 126.989 52.3098C127.849 51.9169 128.584 51.4257 129.191 50.8363C129.849 50.2469 130.355 49.5838 130.71 48.8471C131.115 48.1103 131.317 47.3736 131.317 46.6368C131.317 44.9668 130.862 43.567 129.95 42.4373C129.09 41.2585 128.001 40.2024 126.685 39.2692C125.369 38.2869 123.926 37.3782 122.356 36.5432C120.838 35.7082 119.42 34.775 118.104 33.7435C116.787 32.7121 115.674 31.5333 114.762 30.2071C113.902 28.8809 113.471 27.2601 113.471 25.3445C113.471 23.7236 113.75 22.3483 114.307 21.2186C114.864 20.0889 115.598 19.1557 116.509 18.419C117.471 17.6822 118.559 17.1419 119.774 16.7981C120.989 16.4543 122.255 16.2824 123.571 16.2824C124.888 16.2824 126.128 16.5279 127.293 17.0191C128.457 17.5103 129.444 18.1243 130.254 18.861C131.115 19.5978 131.773 20.4082 132.229 21.2923C132.735 22.1764 132.988 23.0114 132.988 23.7973L129.723 26.2286C129.723 25.4427 129.621 24.5341 129.419 23.5026C129.216 22.422 128.862 21.4151 128.356 20.4819C127.849 19.4995 127.166 18.6891 126.305 18.0506C125.495 17.3629 124.483 17.0191 123.268 17.0191C121.445 17.0191 119.977 17.5348 118.863 18.5663C117.8 19.5487 117.268 20.7275 117.268 22.1027C117.268 23.8219 117.724 25.2708 118.635 26.4496C119.547 27.6284 120.686 28.6845 122.053 29.6177C123.42 30.5509 124.888 31.435 126.457 32.27C128.027 33.105 129.495 34.0382 130.862 35.0697C132.229 36.1012 133.368 37.3045 134.279 38.6798C135.19 40.0551 135.646 41.7251 135.646 43.6898C135.646 45.1633 135.342 46.514 134.735 47.7419C134.178 48.9208 133.368 49.9522 132.305 50.8363C131.292 51.7204 130.077 52.4081 128.659 52.8992Z" fill="#3D4621"/>
<path d="M146.709 52.3835C145.798 53.2676 144.684 53.7097 143.368 53.7097C142.051 53.7097 140.938 53.2922 140.026 52.4572C139.166 51.5731 138.735 50.4925 138.735 49.2155C138.735 47.9384 139.166 46.8824 140.026 46.0474C140.938 45.1633 142.051 44.7212 143.368 44.7212C144.684 44.7212 145.772 45.1633 146.633 46.0474C147.544 46.8824 148 47.9384 148 49.2155C148 50.4925 147.57 51.5485 146.709 52.3835Z" fill="#3D4621"/>
</svg>
