<svg width="148" height="93" viewBox="0 0 148 93" fill="none" xmlns="http://www.w3.org/2000/svg">
<path d="M10.252 50.91C10.7583 51.745 11.4924 52.2853 12.4543 52.5309V53.0466H0V52.5309C0.961915 52.2853 1.69601 51.745 2.20228 50.91C2.75918 50.075 3.03763 48.8716 3.03763 47.2999V7.29391C3.03763 5.67304 2.75918 4.44511 2.20228 3.61012C1.69601 2.77512 0.961915 2.23483 0 1.98925V1.47352H12.4543V1.98925C11.4924 2.23483 10.7329 2.77512 10.176 3.61012C9.66978 4.44511 9.41664 5.67304 9.41664 7.29391V31.9753C11.7961 29.0283 13.9984 26.3023 16.0235 23.7973C18.0486 21.2923 19.7952 19.0084 21.2634 16.9454C22.7822 14.8334 23.9719 12.9424 24.8326 11.2724C25.6933 9.60242 26.1236 8.15346 26.1236 6.92553C26.1236 5.20643 25.8451 4.02761 25.2882 3.38909C24.7313 2.70145 23.9972 2.23483 23.086 1.98925V1.47352H36.4515V1.98925C35.7427 2.48042 34.6289 3.43821 33.1101 4.8626C32.047 5.94318 30.756 7.36758 29.2371 9.1358C27.769 10.904 26.2502 12.7214 24.6807 14.5878C23.1619 16.4543 21.719 18.2225 20.3521 19.8925C18.9852 21.5625 17.9473 22.8395 17.2385 23.7236L35.4643 48.3313C36.73 49.7066 37.7678 50.7381 38.5778 51.4257C39.3879 52.1134 40.2992 52.4818 41.3117 52.5309V53.0466H27.1868V52.5309C27.7943 52.4326 28.2752 52.2853 28.6296 52.0888C28.984 51.8432 29.1612 51.3766 29.1612 50.689C29.1612 50.296 28.8321 49.5593 28.174 48.4787C27.5158 47.349 26.6805 46.0474 25.6679 44.5739C24.6554 43.1004 23.5416 41.5286 22.3265 39.8586C21.1115 38.1395 19.9218 36.5187 18.7573 34.996C17.5929 33.4243 16.5551 32.049 15.6438 30.8702C14.7325 29.6422 14.0743 28.7581 13.6693 28.2178L9.41664 33.5225V47.2999C9.41664 48.8716 9.69509 50.075 10.252 50.91Z" fill="#3D4621"/>
<path d="M53.3904 53.0466C52.6816 53.4887 51.8716 53.7097 50.9603 53.7097C49.3403 53.7097 48.0746 53.0957 47.1633 51.8678C46.3026 50.5907 45.8723 48.8225 45.8723 46.5631V9.1358C45.8723 6.04142 44.9863 4.29776 43.2144 3.90482V3.38909L51.8716 0H52.2513V44.2792C52.2513 46.6859 52.3273 48.3313 52.4791 49.2155C52.631 50.0996 53.0613 50.5416 53.7701 50.5416C54.1751 50.5416 54.5548 50.3697 54.9092 50.0259C55.2636 49.6821 55.5927 49.2891 55.8965 48.8471C56.2509 48.3559 56.5799 47.7911 56.8837 47.1525L57.5672 47.3736C57.314 47.963 56.9849 48.626 56.5799 49.3628C56.2255 50.0996 55.7699 50.7872 55.213 51.4257C54.7067 52.0643 54.0992 52.6045 53.3904 53.0466Z" fill="#3D4621"/>
<path d="M69.2958 7.29391C68.5364 8.03067 67.6251 8.39905 66.562 8.39905C65.4482 8.39905 64.5116 8.03067 63.7522 7.29391C62.9928 6.55715 62.6131 5.64848 62.6131 4.5679C62.6131 3.48732 62.9928 2.57865 63.7522 1.84189C64.5116 1.10514 65.4482 0.736758 66.562 0.736758C67.6251 0.736758 68.5364 1.10514 69.2958 1.84189C70.0552 2.57865 70.435 3.48732 70.435 4.5679C70.435 5.64848 70.0552 6.55715 69.2958 7.29391ZM70.8147 53.0466C70.1059 53.4887 69.2958 53.7097 68.3846 53.7097C66.7645 53.7097 65.4988 53.0957 64.5875 51.8678C63.7269 50.5907 63.2965 48.8225 63.2965 46.5631V25.4182C63.2965 22.3238 62.4106 20.5801 60.6386 20.1872V19.6714L69.2958 16.2824H69.6755V44.2792C69.6755 46.6859 69.7515 48.3313 69.9034 49.2155C70.0553 50.0996 70.4856 50.5416 71.1944 50.5416C71.5994 50.5416 71.9791 50.3697 72.3335 50.0259C72.6878 49.6821 73.0169 49.2891 73.3207 48.8471C73.6751 48.3559 74.0042 47.7911 74.3079 47.1525L74.9914 47.3736C74.7383 47.963 74.4092 48.626 74.0042 49.3628C73.6498 50.0996 73.1941 50.7872 72.6372 51.4257C72.131 52.0643 71.5234 52.6045 70.8147 53.0466Z" fill="#3D4621"/>
<path d="M87.7126 47.2262C87.7126 50.2715 88.7252 52.0397 90.7503 52.5309V52.9729H78.296V52.5309C80.3211 52.0397 81.3336 50.2715 81.3336 47.2262V9.1358C81.3336 6.04142 80.4476 4.29776 78.6757 3.90482V3.38909L87.3329 0H87.7126V35.7328C91.3578 32.2455 94.1676 29.4212 96.142 27.2601C98.1671 25.0989 99.1797 23.1833 99.1797 21.5133C99.1797 20.5801 98.8506 19.7451 98.1924 19.0084C97.5343 18.2716 96.7243 17.7804 95.7623 17.5348V17.0191H109.128V17.5348C107.305 18.6645 105.635 19.8188 104.116 20.9976C102.648 22.1764 101.23 23.4044 99.8631 24.6814C98.5468 25.9093 97.2305 27.2355 95.9142 28.6599C94.5979 30.0352 93.1804 31.4841 91.6615 33.0068C92.9778 34.6768 94.4713 36.5923 96.142 38.7535C97.8634 40.8655 99.5847 42.9039 101.306 44.8686C103.027 46.8333 104.673 48.5524 106.242 50.0259C107.862 51.4503 109.254 52.2853 110.419 52.5309V52.9729H97.9646V52.5309C98.3696 52.3835 98.5722 52.0888 98.5722 51.6468C98.5722 50.6644 97.6862 48.9699 95.9142 46.5631C94.1929 44.1073 91.8641 41.062 88.9277 37.4273C88.6745 37.1326 88.3961 36.9853 88.0923 36.9853C87.9405 36.9853 87.8139 37.0098 87.7126 37.0589V47.2262Z" fill="#3D4621"/>
<path d="M128.659 52.8992C127.242 53.3904 125.698 53.636 124.027 53.636C122.255 53.636 120.635 53.3904 119.167 52.8992C117.749 52.4081 116.534 51.7941 115.522 51.0574C114.509 50.3206 113.724 49.5102 113.168 48.626C112.611 47.7419 112.332 46.9069 112.332 46.1211L115.37 43.8371C115.37 44.623 115.522 45.5562 115.826 46.6368C116.129 47.6683 116.636 48.6752 117.344 49.6575C118.053 50.5907 118.939 51.3766 120.002 52.0151C121.116 52.6045 122.407 52.8992 123.875 52.8992C124.027 52.8992 124.154 52.8992 124.255 52.8992C125.217 52.8501 126.128 52.6537 126.989 52.3098C127.849 51.9169 128.584 51.4257 129.191 50.8363C129.849 50.2469 130.355 49.5838 130.71 48.8471C131.115 48.1103 131.317 47.3736 131.317 46.6368C131.317 44.9668 130.862 43.567 129.95 42.4373C129.09 41.2585 128.001 40.2024 126.685 39.2692C125.369 38.2869 123.926 37.3782 122.356 36.5432C120.838 35.7082 119.42 34.775 118.104 33.7435C116.787 32.7121 115.674 31.5333 114.762 30.2071C113.902 28.8809 113.471 27.2601 113.471 25.3445C113.471 23.7236 113.75 22.3483 114.307 21.2186C114.864 20.0889 115.598 19.1557 116.509 18.419C117.471 17.6822 118.559 17.1419 119.774 16.7981C120.989 16.4543 122.255 16.2824 123.571 16.2824C124.888 16.2824 126.128 16.5279 127.293 17.0191C128.457 17.5103 129.444 18.1243 130.254 18.861C131.115 19.5978 131.773 20.4082 132.229 21.2923C132.735 22.1764 132.988 23.0114 132.988 23.7973L129.723 26.2286C129.723 25.4427 129.621 24.5341 129.419 23.5026C129.216 22.422 128.862 21.4151 128.356 20.4819C127.849 19.4995 127.166 18.6891 126.305 18.0506C125.495 17.3629 124.483 17.0191 123.268 17.0191C121.445 17.0191 119.977 17.5348 118.863 18.5663C117.8 19.5487 117.268 20.7275 117.268 22.1027C117.268 23.8219 117.724 25.2708 118.635 26.4496C119.547 27.6284 120.686 28.6845 122.053 29.6177C123.42 30.5509 124.888 31.435 126.457 32.27C128.027 33.105 129.495 34.0382 130.862 35.0697C132.229 36.1012 133.368 37.3045 134.279 38.6798C135.19 40.0551 135.646 41.7251 135.646 43.6898C135.646 45.1633 135.342 46.514 134.735 47.7419C134.178 48.9208 133.368 49.9522 132.305 50.8363C131.292 51.7204 130.077 52.4081 128.659 52.8992Z" fill="#3D4621"/>
<path d="M146.709 52.3835C145.798 53.2676 144.684 53.7097 143.368 53.7097C142.051 53.7097 140.938 53.2922 140.026 52.4572C139.166 51.5731 138.735 50.4925 138.735 49.2155C138.735 47.9384 139.166 46.8824 140.026 46.0474C140.938 45.1633 142.051 44.7212 143.368 44.7212C144.684 44.7212 145.772 45.1633 146.633 46.0474C147.544 46.8824 148 47.9384 148 49.2155C148 50.4925 147.57 51.5485 146.709 52.3835Z" fill="#3D4621"/>
<path d="M29.0644 74.9849H30.6776V89.1934H29.0644V74.9849ZM38.772 88.759C38.1929 89.214 37.531 89.4415 36.7865 89.4415C36.0281 89.4415 35.4008 89.1865 34.9044 88.6763C34.4218 88.1662 34.1806 87.5112 34.1806 86.7115V79.8865H32.5053V78.5008H34.1806V75.564H35.7317V78.5008H38.3583V79.8865H35.7317V86.7115C35.7317 87.0976 35.842 87.4216 36.0626 87.6836C36.297 87.9318 36.5728 88.0559 36.8899 88.0559C37.1243 88.0559 37.338 88.0145 37.531 87.9318C37.7241 87.849 37.8826 87.7456 38.0067 87.6215L38.772 88.759ZM44.4118 92.8747C44.1223 92.8747 43.8258 92.8403 43.5225 92.7713C43.2054 92.7162 42.9434 92.6404 42.7366 92.5438L42.9848 91.2616C43.1502 91.3305 43.3639 91.3856 43.6259 91.427C43.8741 91.4684 44.1016 91.4891 44.3084 91.4891C44.6531 91.4891 44.9289 91.365 45.1357 91.1168C45.3563 90.8686 45.4666 90.5446 45.4666 90.1447V78.5008H47.0177V90.1447C47.0177 90.9444 46.7696 91.5994 46.2732 92.1095C45.7906 92.6197 45.1702 92.8747 44.4118 92.8747ZM46.2525 76.5567C45.963 76.5567 45.7148 76.4533 45.508 76.2465C45.3149 76.0396 45.2184 75.7984 45.2184 75.5226C45.2184 75.2468 45.3149 75.0124 45.508 74.8194C45.7148 74.6126 45.963 74.5092 46.2525 74.5092C46.5283 74.5092 46.7627 74.6126 46.9557 74.8194C47.1625 75.0124 47.2659 75.2468 47.2659 75.5226C47.2659 75.7984 47.1625 76.0396 46.9557 76.2465C46.7627 76.4533 46.5283 76.5567 46.2525 76.5567ZM57.9452 78.5008V89.1934H56.3941V87.4974C56.077 88.0765 55.6013 88.5453 54.967 88.9038C54.3328 89.2623 53.6365 89.4415 52.8782 89.4415C52.0923 89.4415 51.396 89.2692 50.7893 88.9245C50.1826 88.5798 49.7069 88.0972 49.3622 87.4768C49.0313 86.8425 48.8659 86.1186 48.8659 85.3052V78.5008H50.417V85.0983C50.417 85.9808 50.6652 86.6977 51.1616 87.2493C51.6579 87.787 52.2991 88.0559 53.085 88.0559C53.6779 88.0559 54.2294 87.9318 54.7395 87.6836C55.2497 87.4354 55.6496 87.1045 55.9391 86.6908C56.2424 86.2634 56.3941 85.8015 56.3941 85.3052V78.5008H57.9452ZM63.5321 89.4415C62.7738 89.4415 62.0017 89.3037 61.2157 89.0279C60.4436 88.7521 59.7404 88.3592 59.1062 87.849L59.9128 86.7115C61.1399 87.6077 62.3464 88.0559 63.5321 88.0559C64.2353 88.0559 64.8006 87.9042 65.228 87.6008C65.6693 87.2975 65.8899 86.8908 65.8899 86.3806C65.8899 86.0221 65.7727 85.7257 65.5383 85.4913C65.3039 85.2431 65.0074 85.0501 64.6489 84.9122C64.3042 84.7743 63.8217 84.6158 63.2012 84.4365C61.8914 84.0642 60.9676 83.6575 60.4298 83.2163C59.8921 82.7613 59.6232 82.1546 59.6232 81.3963C59.6232 80.4449 59.9748 79.6866 60.678 79.1213C61.3812 78.5422 62.2774 78.2526 63.3667 78.2526C64.0147 78.2526 64.6696 78.3629 65.3314 78.5835C65.9933 78.7903 66.6137 79.0799 67.1928 79.4522L66.4483 80.6517C65.3866 79.9761 64.3594 79.6383 63.3667 79.6383C62.7324 79.6383 62.2085 79.7762 61.7948 80.0519C61.3812 80.3277 61.1744 80.7138 61.1744 81.2101C61.1744 81.5135 61.264 81.7616 61.4432 81.9547C61.6225 82.1477 61.8914 82.3201 62.2498 82.4717C62.6083 82.6234 63.1736 82.8233 63.9458 83.0715C64.7041 83.3059 65.3177 83.5334 65.7865 83.754C66.2552 83.9746 66.6482 84.2848 66.9653 84.6847C67.2824 85.0708 67.441 85.5809 67.441 86.2152C67.441 87.1803 67.0687 87.9593 66.3242 88.5522C65.5934 89.1451 64.6627 89.4415 63.5321 89.4415ZM73.9676 88.759C73.3885 89.214 72.7267 89.4415 71.9821 89.4415C71.2238 89.4415 70.5965 89.1865 70.1001 88.6763C69.6175 88.1662 69.3762 87.5112 69.3762 86.7115V79.8865H67.701V78.5008H69.3762V75.564H70.9274V78.5008H73.554V79.8865H70.9274V86.7115C70.9274 87.0976 71.0377 87.4216 71.2583 87.6836C71.4927 87.9318 71.7684 88.0559 72.0856 88.0559C72.32 88.0559 72.5337 88.0145 72.7267 87.9318C72.9197 87.849 73.0783 87.7456 73.2024 87.6215L73.9676 88.759ZM81.0552 74.9849H82.6684V82.844L89.8657 74.9849H91.996L86.0189 81.479L92.3889 89.1934H90.3001L84.9021 82.5751L82.6684 84.9329V89.1934H81.0552V74.9849ZM94.1443 74.7367H95.6955V89.1934H94.1443V74.7367ZM97.6884 78.5008H99.2395V89.1934H97.6884V78.5008ZM98.4743 76.5567C98.1847 76.5567 97.9365 76.4533 97.7297 76.2465C97.5367 76.0396 97.4402 75.7984 97.4402 75.5226C97.4402 75.2468 97.5367 75.0124 97.7297 74.8194C97.9365 74.6126 98.1847 74.5092 98.4743 74.5092C98.75 74.5092 98.9844 74.6126 99.1775 74.8194C99.3843 75.0124 99.4877 75.2468 99.4877 75.5226C99.4877 75.7984 99.3843 76.0396 99.1775 76.2465C98.9844 76.4533 98.75 76.5567 98.4743 76.5567ZM101.234 74.7367H102.785V84.4158L108.638 78.5008H110.624L105.805 83.4024L110.355 89.1934H108.411L104.709 84.4572L102.785 86.3599V89.1934H101.234V74.7367ZM115.815 89.4415C115.057 89.4415 114.285 89.3037 113.499 89.0279C112.727 88.7521 112.024 88.3592 111.389 87.849L112.196 86.7115C113.423 87.6077 114.63 88.0559 115.815 88.0559C116.519 88.0559 117.084 87.9042 117.511 87.6008C117.953 87.2975 118.173 86.8908 118.173 86.3806C118.173 86.0221 118.056 85.7257 117.822 85.4913C117.587 85.2431 117.291 85.0501 116.932 84.9122C116.588 84.7743 116.105 84.6158 115.485 84.4365C114.175 84.0642 113.251 83.6575 112.713 83.2163C112.175 82.7613 111.907 82.1546 111.907 81.3963C111.907 80.4449 112.258 79.6866 112.961 79.1213C113.665 78.5422 114.561 78.2526 115.65 78.2526C116.298 78.2526 116.953 78.3629 117.615 78.5835C118.277 78.7903 118.897 79.0799 119.476 79.4522L118.732 80.6517C117.67 79.9761 116.643 79.6383 115.65 79.6383C115.016 79.6383 114.492 79.7762 114.078 80.0519C113.665 80.3277 113.458 80.7138 113.458 81.2101C113.458 81.5135 113.547 81.7616 113.727 81.9547C113.906 82.1477 114.175 82.3201 114.533 82.4717C114.892 82.6234 115.457 82.8233 116.229 83.0715C116.987 83.3059 117.601 83.5334 118.07 83.754C118.539 83.9746 118.932 84.2848 119.249 84.6847C119.566 85.0708 119.724 85.5809 119.724 86.2152C119.724 87.1803 119.352 87.9593 118.607 88.5522C117.877 89.1451 116.946 89.4415 115.815 89.4415Z" fill="#3D4621"/>
</svg>
